<svg width="153" height="28" viewBox="0 0 153 28" fill="none" xmlns="http://www.w3.org/2000/svg">
<mask id="path-1-outside-1_1065_968" maskUnits="userSpaceOnUse" x="0" y="0" width="153" height="28" fill="black">
<rect fill="white" width="153" height="28"/>
<path d="M2.464 26C1.504 26 1.024 25.52 1.024 24.56V23.66C1.024 22.724 1.504 22.256 2.464 22.256H3.328C4.24 22.256 4.696 22.724 4.696 23.66V24.56C4.696 25.52 4.24 26 3.328 26H2.464ZM12.9591 26C12.5631 26 12.2091 25.85 11.8971 25.55C11.5971 25.238 11.4471 24.884 11.4471 24.488V3.104C11.4471 2.708 11.5971 2.36 11.8971 2.06C12.2091 1.748 12.5631 1.592 12.9591 1.592C13.3551 1.592 13.7031 1.748 14.0031 2.06C14.3151 2.36 14.4711 2.708 14.4711 3.104V12.14H29.1591V3.104C29.1591 2.708 29.3091 2.36 29.6091 2.06C29.9091 1.748 30.2631 1.592 30.6711 1.592C31.0671 1.592 31.4151 1.748 31.7151 2.06C32.0271 2.36 32.1831 2.708 32.1831 3.104V24.488C32.1831 24.884 32.0271 25.238 31.7151 25.55C31.4151 25.85 31.0671 26 30.6711 26C30.2631 26 29.9091 25.85 29.6091 25.55C29.3091 25.238 29.1591 24.884 29.1591 24.488V15.164H14.4711V24.488C14.4711 24.884 14.3151 25.238 14.0031 25.55C13.7031 25.85 13.3551 26 12.9591 26ZM38.5256 25.856C37.5656 25.484 37.2776 24.824 37.6616 23.876L46.2296 2.78C46.5896 1.988 47.1536 1.592 47.9216 1.592H47.9936C48.7736 1.628 49.3016 2.024 49.5776 2.78L58.2896 23.876C58.6736 24.824 58.3976 25.484 57.4616 25.856C56.5136 26.228 55.8536 25.952 55.4816 25.028L53.5376 20.312H42.3236L40.4696 25.028C40.0976 25.964 39.4496 26.24 38.5256 25.856ZM43.5116 17.288H52.2956L47.8136 6.38L43.5116 17.288ZM65.1662 26C64.1582 26 63.6542 25.496 63.6542 24.488V3.104C63.6542 2.096 64.1582 1.592 65.1662 1.592C65.8262 1.592 66.3782 1.916 66.8222 2.564L75.3182 15.344L74.6702 15.452L83.2382 2.564C83.6462 1.916 84.2582 1.592 85.0742 1.592C85.8902 1.592 86.2982 2.096 86.2982 3.104V24.488C86.2982 25.496 85.7942 26 84.7862 26C83.7782 26 83.2742 25.496 83.2742 24.488V6.128L84.2102 6.452L76.6502 17.576C76.2062 18.224 75.5942 18.548 74.8142 18.548C74.2742 18.548 73.7822 18.224 73.3382 17.576L65.7782 6.452L66.6782 6.704V24.488C66.6782 25.496 66.1742 26 65.1662 26ZM101.667 26C98.9191 26 96.8851 25.346 95.5651 24.038C94.2571 22.718 93.6031 20.684 93.6031 17.936V3.104C93.6031 2.6 93.7291 2.222 93.9811 1.97C94.2331 1.718 94.6111 1.592 95.1151 1.592C95.6191 1.592 95.9971 1.718 96.2491 1.97C96.5011 2.222 96.6271 2.6 96.6271 3.104V17.936C96.6271 19.22 96.7771 20.228 97.0771 20.96C97.3891 21.692 97.9111 22.214 98.6431 22.526C99.3751 22.826 100.383 22.976 101.667 22.976H105.987C107.271 22.976 108.279 22.826 109.011 22.526C109.743 22.214 110.259 21.692 110.559 20.96C110.871 20.228 111.027 19.22 111.027 17.936V3.104C111.027 2.6 111.153 2.222 111.405 1.97C111.657 1.718 112.035 1.592 112.539 1.592C113.043 1.592 113.421 1.718 113.673 1.97C113.925 2.222 114.051 2.6 114.051 3.104V17.936C114.051 20.684 113.397 22.718 112.089 24.038C110.781 25.346 108.747 26 105.987 26H101.667ZM122.858 26C121.85 26 121.346 25.496 121.346 24.488V3.104C121.346 2.096 121.85 1.592 122.858 1.592C123.374 1.592 123.878 1.892 124.37 2.492L138.842 21.14H138.086V3.104C138.086 2.096 138.59 1.592 139.598 1.592C140.606 1.592 141.11 2.096 141.11 3.104V24.488C141.11 25.496 140.606 26 139.598 26C139.058 26 138.554 25.7 138.086 25.1L123.614 6.452H124.37V24.488C124.37 25.496 123.866 26 122.858 26ZM149.312 26C148.352 26 147.872 25.52 147.872 24.56V23.66C147.872 22.724 148.352 22.256 149.312 22.256H150.176C151.088 22.256 151.544 22.724 151.544 23.66V24.56C151.544 25.52 151.088 26 150.176 26H149.312Z"/>
</mask>
<path d="M2.464 26C1.504 26 1.024 25.52 1.024 24.56V23.66C1.024 22.724 1.504 22.256 2.464 22.256H3.328C4.24 22.256 4.696 22.724 4.696 23.66V24.56C4.696 25.52 4.24 26 3.328 26H2.464ZM12.9591 26C12.5631 26 12.2091 25.85 11.8971 25.55C11.5971 25.238 11.4471 24.884 11.4471 24.488V3.104C11.4471 2.708 11.5971 2.36 11.8971 2.06C12.2091 1.748 12.5631 1.592 12.9591 1.592C13.3551 1.592 13.7031 1.748 14.0031 2.06C14.3151 2.36 14.4711 2.708 14.4711 3.104V12.14H29.1591V3.104C29.1591 2.708 29.3091 2.36 29.6091 2.06C29.9091 1.748 30.2631 1.592 30.6711 1.592C31.0671 1.592 31.4151 1.748 31.7151 2.06C32.0271 2.36 32.1831 2.708 32.1831 3.104V24.488C32.1831 24.884 32.0271 25.238 31.7151 25.55C31.4151 25.85 31.0671 26 30.6711 26C30.2631 26 29.9091 25.85 29.6091 25.55C29.3091 25.238 29.1591 24.884 29.1591 24.488V15.164H14.4711V24.488C14.4711 24.884 14.3151 25.238 14.0031 25.55C13.7031 25.85 13.3551 26 12.9591 26ZM38.5256 25.856C37.5656 25.484 37.2776 24.824 37.6616 23.876L46.2296 2.78C46.5896 1.988 47.1536 1.592 47.9216 1.592H47.9936C48.7736 1.628 49.3016 2.024 49.5776 2.78L58.2896 23.876C58.6736 24.824 58.3976 25.484 57.4616 25.856C56.5136 26.228 55.8536 25.952 55.4816 25.028L53.5376 20.312H42.3236L40.4696 25.028C40.0976 25.964 39.4496 26.24 38.5256 25.856ZM43.5116 17.288H52.2956L47.8136 6.38L43.5116 17.288ZM65.1662 26C64.1582 26 63.6542 25.496 63.6542 24.488V3.104C63.6542 2.096 64.1582 1.592 65.1662 1.592C65.8262 1.592 66.3782 1.916 66.8222 2.564L75.3182 15.344L74.6702 15.452L83.2382 2.564C83.6462 1.916 84.2582 1.592 85.0742 1.592C85.8902 1.592 86.2982 2.096 86.2982 3.104V24.488C86.2982 25.496 85.7942 26 84.7862 26C83.7782 26 83.2742 25.496 83.2742 24.488V6.128L84.2102 6.452L76.6502 17.576C76.2062 18.224 75.5942 18.548 74.8142 18.548C74.2742 18.548 73.7822 18.224 73.3382 17.576L65.7782 6.452L66.6782 6.704V24.488C66.6782 25.496 66.1742 26 65.1662 26ZM101.667 26C98.9191 26 96.8851 25.346 95.5651 24.038C94.2571 22.718 93.6031 20.684 93.6031 17.936V3.104C93.6031 2.6 93.7291 2.222 93.9811 1.97C94.2331 1.718 94.6111 1.592 95.1151 1.592C95.6191 1.592 95.9971 1.718 96.2491 1.97C96.5011 2.222 96.6271 2.6 96.6271 3.104V17.936C96.6271 19.22 96.7771 20.228 97.0771 20.96C97.3891 21.692 97.9111 22.214 98.6431 22.526C99.3751 22.826 100.383 22.976 101.667 22.976H105.987C107.271 22.976 108.279 22.826 109.011 22.526C109.743 22.214 110.259 21.692 110.559 20.96C110.871 20.228 111.027 19.22 111.027 17.936V3.104C111.027 2.6 111.153 2.222 111.405 1.97C111.657 1.718 112.035 1.592 112.539 1.592C113.043 1.592 113.421 1.718 113.673 1.97C113.925 2.222 114.051 2.6 114.051 3.104V17.936C114.051 20.684 113.397 22.718 112.089 24.038C110.781 25.346 108.747 26 105.987 26H101.667ZM122.858 26C121.85 26 121.346 25.496 121.346 24.488V3.104C121.346 2.096 121.85 1.592 122.858 1.592C123.374 1.592 123.878 1.892 124.37 2.492L138.842 21.14H138.086V3.104C138.086 2.096 138.59 1.592 139.598 1.592C140.606 1.592 141.11 2.096 141.11 3.104V24.488C141.11 25.496 140.606 26 139.598 26C139.058 26 138.554 25.7 138.086 25.1L123.614 6.452H124.37V24.488C124.37 25.496 123.866 26 122.858 26ZM149.312 26C148.352 26 147.872 25.52 147.872 24.56V23.66C147.872 22.724 148.352 22.256 149.312 22.256H150.176C151.088 22.256 151.544 22.724 151.544 23.66V24.56C151.544 25.52 151.088 26 150.176 26H149.312Z" fill="url(#paint0_linear_1065_968)"/>
<path d="M2.464 26V25C2.30435 25 2.20537 24.9797 2.15023 24.9613C2.12366 24.9525 2.10841 24.9445 2.101 24.94C2.09394 24.9358 2.09153 24.9333 2.09111 24.9329C2.09068 24.9325 2.08823 24.9301 2.08399 24.923C2.07955 24.9156 2.07154 24.9003 2.06268 24.8738C2.0443 24.8186 2.024 24.7197 2.024 24.56H1.024H0.0240002C0.0240002 25.1941 0.183214 25.8534 0.676893 26.3471C1.17057 26.8408 1.82986 27 2.464 27V26ZM1.024 24.56H2.024V23.66H1.024H0.0240002V24.56H1.024ZM1.024 23.66H2.024C2.024 23.5086 2.04375 23.4174 2.06023 23.3692C2.06814 23.3461 2.07498 23.3337 2.07816 23.3285C2.07981 23.3258 2.08091 23.3244 2.08136 23.3238C2.0818 23.3233 2.08201 23.3231 2.0821 23.323C2.08219 23.3229 2.08268 23.3224 2.08387 23.3215C2.08507 23.3206 2.08745 23.3189 2.09144 23.3166C2.09928 23.312 2.11534 23.3038 2.14309 23.2948C2.20065 23.2761 2.3022 23.256 2.464 23.256V22.256V21.256C1.83612 21.256 1.18035 21.4089 0.6859 21.891C0.186756 22.3777 0.0240002 23.0313 0.0240002 23.66H1.024ZM2.464 22.256V23.256H3.328V22.256V21.256H2.464V22.256ZM3.328 22.256V23.256C3.62317 23.256 3.66241 23.3302 3.63777 23.3049C3.61783 23.2844 3.696 23.3397 3.696 23.66H4.696H5.696C5.696 23.0443 5.54617 22.3976 5.07023 21.9091C4.58959 21.4159 3.94483 21.256 3.328 21.256V22.256ZM4.696 23.66H3.696V24.56H4.696H5.696V23.66H4.696ZM4.696 24.56H3.696C3.696 24.8983 3.61475 24.9662 3.629 24.9513C3.65237 24.9267 3.61639 25 3.328 25V26V27C3.95161 27 4.59963 26.8334 5.079 26.3288C5.54925 25.8338 5.696 25.1817 5.696 24.56H4.696ZM3.328 26V25H2.464V26V27H3.328V26ZM11.8971 25.55L11.1763 26.2431L11.1899 26.2572L11.204 26.2708L11.8971 25.55ZM11.8971 2.06L12.6042 2.76711H12.6042L11.8971 2.06ZM14.0031 2.06L13.2823 2.75311L13.2959 2.76724L13.31 2.78083L14.0031 2.06ZM14.4711 12.14H13.4711V13.14H14.4711V12.14ZM29.1591 12.14V13.14H30.1591V12.14H29.1591ZM29.6091 2.06L30.3162 2.76711L30.3232 2.76017L30.33 2.75311L29.6091 2.06ZM31.7151 2.06L30.9943 2.75311L31.0079 2.76724L31.022 2.78083L31.7151 2.06ZM31.7151 25.55L32.4222 26.2571L31.7151 25.55ZM29.6091 25.55L28.8883 26.2431L28.8951 26.2502L28.902 26.2571L29.6091 25.55ZM29.1591 15.164H30.1591V14.164H29.1591V15.164ZM14.4711 15.164V14.164H13.4711V15.164H14.4711ZM14.0031 25.55L14.7102 26.2571L14.0031 25.55ZM12.9591 26V25C12.8467 25 12.7349 24.9683 12.5902 24.8292L11.8971 25.55L11.204 26.2708C11.6833 26.7317 12.2795 27 12.9591 27V26ZM11.8971 25.55L12.618 24.8569C12.4789 24.7122 12.4471 24.6004 12.4471 24.488H11.4471H10.4471C10.4471 25.1676 10.7154 25.7638 11.1763 26.2431L11.8971 25.55ZM11.4471 24.488H12.4471V3.104H11.4471H10.4471V24.488H11.4471ZM11.4471 3.104H12.4471C12.4471 2.99346 12.477 2.89438 12.6042 2.76711L11.8971 2.06L11.19 1.35289C10.7173 1.82561 10.4471 2.42254 10.4471 3.104H11.4471ZM11.8971 2.06L12.6042 2.76711C12.7521 2.61919 12.8598 2.592 12.9591 2.592V1.592V0.591999C12.2665 0.591999 11.6661 0.876805 11.19 1.35289L11.8971 2.06ZM12.9591 1.592V2.592C13.0563 2.592 13.1514 2.61699 13.2823 2.75311L14.0031 2.06L14.724 1.36689C14.2548 0.87901 13.6539 0.591999 12.9591 0.591999V1.592ZM14.0031 2.06L13.31 2.78083C13.4461 2.91172 13.4711 3.00682 13.4711 3.104H14.4711H15.4711C15.4711 2.40918 15.1841 1.80828 14.6962 1.33917L14.0031 2.06ZM14.4711 3.104H13.4711V12.14H14.4711H15.4711V3.104H14.4711ZM14.4711 12.14V13.14H29.1591V12.14V11.14H14.4711V12.14ZM29.1591 12.14H30.1591V3.104H29.1591H28.1591V12.14H29.1591ZM29.1591 3.104H30.1591C30.1591 2.99346 30.189 2.89438 30.3162 2.76711L29.6091 2.06L28.902 1.35289C28.4293 1.82561 28.1591 2.42254 28.1591 3.104H29.1591ZM29.6091 2.06L30.33 2.75311C30.4542 2.62386 30.5531 2.592 30.6711 2.592V1.592V0.591999C29.9732 0.591999 29.364 0.872139 28.8883 1.36689L29.6091 2.06ZM30.6711 1.592V2.592C30.7683 2.592 30.8634 2.61699 30.9943 2.75311L31.7151 2.06L32.436 1.36689C31.9668 0.87901 31.3659 0.591999 30.6711 0.591999V1.592ZM31.7151 2.06L31.022 2.78083C31.1581 2.91172 31.1831 3.00682 31.1831 3.104H32.1831H33.1831C33.1831 2.40918 32.8961 1.80828 32.4082 1.33917L31.7151 2.06ZM32.1831 3.104H31.1831V24.488H32.1831H33.1831V3.104H32.1831ZM32.1831 24.488H31.1831C31.1831 24.5874 31.1559 24.695 31.008 24.8429L31.7151 25.55L32.4222 26.2571C32.8983 25.781 33.1831 25.1806 33.1831 24.488H32.1831ZM31.7151 25.55L31.008 24.8429C30.8807 24.9702 30.7817 25 30.6711 25V26V27C31.3526 27 31.9495 26.7298 32.4222 26.2571L31.7151 25.55ZM30.6711 26V25C30.5399 25 30.437 24.9637 30.3162 24.8429L29.6091 25.55L28.902 26.2571C29.3812 26.7363 29.9863 27 30.6711 27V26ZM29.6091 25.55L30.33 24.8569C30.1909 24.7122 30.1591 24.6004 30.1591 24.488H29.1591H28.1591C28.1591 25.1676 28.4274 25.7638 28.8883 26.2431L29.6091 25.55ZM29.1591 24.488H30.1591V15.164H29.1591H28.1591V24.488H29.1591ZM29.1591 15.164V14.164H14.4711V15.164V16.164H29.1591V15.164ZM14.4711 15.164H13.4711V24.488H14.4711H15.4711V15.164H14.4711ZM14.4711 24.488H13.4711C13.4711 24.5874 13.4439 24.695 13.296 24.8429L14.0031 25.55L14.7102 26.2571C15.1863 25.781 15.4711 25.1806 15.4711 24.488H14.4711ZM14.0031 25.55L13.296 24.8429C13.1687 24.9702 13.0697 25 12.9591 25V26V27C13.6406 27 14.2375 26.7298 14.7102 26.2571L14.0031 25.55ZM38.5256 25.856L38.9094 24.9326L38.8982 24.9279L38.8869 24.9236L38.5256 25.856ZM37.6616 23.876L36.7351 23.4997L36.7347 23.5006L37.6616 23.876ZM46.2296 2.78L45.3192 2.36619L45.3108 2.38479L45.3031 2.40371L46.2296 2.78ZM47.9936 1.592L48.0397 0.593062L48.0167 0.591999H47.9936V1.592ZM49.5776 2.78L48.6382 3.12294L48.6454 3.14248L48.6533 3.1617L49.5776 2.78ZM58.2896 23.876L59.2165 23.5006L59.2139 23.4943L58.2896 23.876ZM57.4616 25.856L57.8269 26.7869L57.8309 26.7853L57.4616 25.856ZM55.4816 25.028L56.4093 24.6545L56.4061 24.6469L55.4816 25.028ZM53.5376 20.312L54.4621 19.9309L54.207 19.312H53.5376V20.312ZM42.3236 20.312V19.312H41.6422L41.3929 19.9461L42.3236 20.312ZM40.4696 25.028L41.3989 25.3973L41.4003 25.3939L40.4696 25.028ZM43.5116 17.288L42.5813 16.9211L42.0422 18.288H43.5116V17.288ZM52.2956 17.288V18.288H53.7876L53.2206 16.9079L52.2956 17.288ZM47.8136 6.38L48.7386 5.99994L47.7946 3.70256L46.8833 6.01311L47.8136 6.38ZM38.5256 25.856L38.8869 24.9236C38.7211 24.8593 38.6232 24.7973 38.5689 24.7524C38.5185 24.7107 38.508 24.6863 38.5061 24.6821C38.5044 24.678 38.4941 24.655 38.4978 24.5926C38.5019 24.5248 38.5228 24.4136 38.5884 24.2514L37.6616 23.876L36.7347 23.5006C36.4848 24.1177 36.383 24.8172 36.6731 25.4819C36.9624 26.1451 37.5433 26.5478 38.1643 26.7884L38.5256 25.856ZM37.6616 23.876L38.5881 24.2523L47.1561 3.15629L46.2296 2.78L45.3031 2.40371L36.7351 23.4997L37.6616 23.876ZM46.2296 2.78L47.14 3.1938C47.2653 2.91816 47.3949 2.77927 47.4972 2.70741C47.5919 2.64096 47.7187 2.592 47.9216 2.592V1.592V0.591999C47.3565 0.591999 46.8173 0.741039 46.348 1.07059C45.8863 1.39472 45.5539 1.84984 45.3192 2.36619L46.2296 2.78ZM47.9216 1.592V2.592H47.9936V1.592V0.591999H47.9216V1.592ZM47.9936 1.592L47.9475 2.59094C48.1746 2.60142 48.2987 2.65907 48.3746 2.716C48.4525 2.77447 48.552 2.88673 48.6382 3.12294L49.5776 2.78L50.517 2.43706C50.3272 1.91727 50.0246 1.45353 49.5746 1.116C49.1225 0.776926 48.5926 0.618582 48.0397 0.593062L47.9936 1.592ZM49.5776 2.78L48.6533 3.1617L57.3653 24.2577L58.2896 23.876L59.2139 23.4943L50.5019 2.3983L49.5776 2.78ZM58.2896 23.876L57.3627 24.2514C57.4291 24.4152 57.4513 24.529 57.4561 24.6C57.4605 24.666 57.45 24.6915 57.448 24.6962C57.4462 24.7005 57.437 24.7229 57.3915 24.7616C57.342 24.8038 57.2504 24.8638 57.0923 24.9267L57.4616 25.856L57.8309 26.7853C58.4453 26.5411 59.0151 26.1329 59.2932 25.4678C59.5697 24.8065 59.4647 24.1133 59.2164 23.5006L58.2896 23.876ZM57.4616 25.856L57.0963 24.9251C56.7614 25.0565 56.6461 25.0074 56.6414 25.0054C56.6346 25.0026 56.6113 24.9923 56.5728 24.9475C56.5308 24.8987 56.4715 24.8091 56.4092 24.6545L55.4816 25.028L54.554 25.4015C54.7999 26.0124 55.2093 26.5744 55.8698 26.8506C56.5251 27.1246 57.2138 27.0275 57.8269 26.7869L57.4616 25.856ZM55.4816 25.028L56.4061 24.6469L54.4621 19.9309L53.5376 20.312L52.6131 20.6931L54.5571 25.4091L55.4816 25.028ZM53.5376 20.312V19.312H42.3236V20.312V21.312H53.5376V20.312ZM42.3236 20.312L41.3929 19.9461L39.5389 24.6621L40.4696 25.028L41.4003 25.3939L43.2543 20.6779L42.3236 20.312ZM40.4696 25.028L39.5403 24.6587C39.4767 24.8187 39.4163 24.9118 39.3737 24.9623C39.3346 25.0089 39.3133 25.0168 39.3127 25.017C39.3124 25.0171 39.2933 25.0266 39.2354 25.0226C39.172 25.0182 39.0658 24.9976 38.9094 24.9326L38.5256 25.856L38.1418 26.7794C38.7464 27.0307 39.4363 27.1382 40.0965 26.857C40.755 26.5765 41.1571 26.0058 41.3989 25.3973L40.4696 25.028ZM43.5116 17.288V18.288H52.2956V17.288V16.288H43.5116V17.288ZM52.2956 17.288L53.2206 16.9079L48.7386 5.99994L47.8136 6.38L46.8886 6.76006L51.3706 17.6681L52.2956 17.288ZM47.8136 6.38L46.8833 6.01311L42.5813 16.9211L43.5116 17.288L44.4419 17.6549L48.7439 6.74689L47.8136 6.38ZM66.8222 2.564L67.655 2.01033L67.6471 1.99877L66.8222 2.564ZM75.3182 15.344L75.4826 16.3304L77.0059 16.0765L76.1509 14.7904L75.3182 15.344ZM74.6702 15.452L73.8374 14.8984L72.5618 16.8172L74.8346 16.4384L74.6702 15.452ZM83.2382 2.564L84.0709 3.11763L84.0778 3.1073L84.0844 3.09681L83.2382 2.564ZM83.2742 6.128L83.6013 5.18301L82.2742 4.72363V6.128H83.2742ZM84.2102 6.452L85.0372 7.01409L85.7712 5.93414L84.5373 5.50701L84.2102 6.452ZM76.6502 17.576L77.4751 18.1412L77.4772 18.1381L76.6502 17.576ZM73.3382 17.576L72.5111 18.1381L72.5132 18.1412L73.3382 17.576ZM65.7782 6.452L66.0478 5.48903L63.4133 4.75138L64.9511 7.01409L65.7782 6.452ZM66.6782 6.704H67.6782V5.94554L66.9478 5.74104L66.6782 6.704ZM65.1662 26V25C64.9945 25 64.885 24.9782 64.8209 24.9568C64.7616 24.9371 64.7431 24.9187 64.7393 24.9149C64.7354 24.9111 64.7171 24.8926 64.6973 24.8333C64.676 24.7691 64.6542 24.6596 64.6542 24.488H63.6542H62.6542C62.6542 25.1461 62.8194 25.8234 63.3251 26.3291C63.8307 26.8348 64.508 27 65.1662 27V26ZM63.6542 24.488H64.6542V3.104H63.6542H62.6542V24.488H63.6542ZM63.6542 3.104H64.6542C64.6542 2.93235 64.676 2.82286 64.6973 2.75873C64.7171 2.69943 64.7354 2.68094 64.7393 2.67711C64.7431 2.67327 64.7616 2.65495 64.8209 2.63518C64.885 2.6138 64.9945 2.592 65.1662 2.592V1.592V0.591999C64.508 0.591999 63.8307 0.757213 63.3251 1.26289C62.8194 1.76857 62.6542 2.44585 62.6542 3.104H63.6542ZM65.1662 1.592V2.592C65.4304 2.592 65.699 2.69403 65.9972 3.12923L66.8222 2.564L67.6471 1.99877C67.0573 1.13797 66.2219 0.591999 65.1662 0.591999V1.592ZM66.8222 2.564L65.9894 3.11762L74.4854 15.8976L75.3182 15.344L76.1509 14.7904L67.6549 2.01038L66.8222 2.564ZM75.3182 15.344L75.1538 14.3576L74.5058 14.4656L74.6702 15.452L74.8346 16.4384L75.4826 16.3304L75.3182 15.344ZM74.6702 15.452L75.5029 16.0056L84.0709 3.11763L83.2382 2.564L82.4054 2.01037L73.8374 14.8984L74.6702 15.452ZM83.2382 2.564L84.0844 3.09681C84.2953 2.76183 84.5746 2.592 85.0742 2.592V1.592V0.591999C83.9417 0.591999 82.997 1.07017 82.3919 2.03119L83.2382 2.564ZM85.0742 1.592V2.592C85.177 2.592 85.2213 2.60803 85.2289 2.61118C85.2304 2.6118 85.2205 2.60611 85.2149 2.5992C85.214 2.59806 85.2982 2.70893 85.2982 3.104H86.2982H87.2982C87.2982 2.49107 87.1783 1.84594 86.7694 1.3408C86.3278 0.795257 85.6988 0.591999 85.0742 0.591999V1.592ZM86.2982 3.104H85.2982V24.488H86.2982H87.2982V3.104H86.2982ZM86.2982 24.488H85.2982C85.2982 24.6596 85.2764 24.7691 85.255 24.8333C85.2352 24.8926 85.2169 24.9111 85.2131 24.9149C85.2092 24.9187 85.1907 24.9371 85.1314 24.9568C85.0673 24.9782 84.9578 25 84.7862 25V26V27C85.4443 27 86.1216 26.8348 86.6273 26.3291C87.1329 25.8234 87.2982 25.1461 87.2982 24.488H86.2982ZM84.7862 26V25C84.6145 25 84.505 24.9782 84.4409 24.9568C84.3816 24.9371 84.3631 24.9187 84.3593 24.9149C84.3554 24.9111 84.3371 24.8926 84.3173 24.8333C84.296 24.7691 84.2742 24.6596 84.2742 24.488H83.2742H82.2742C82.2742 25.1461 82.4394 25.8234 82.9451 26.3291C83.4507 26.8348 84.128 27 84.7862 27V26ZM83.2742 24.488H84.2742V6.128H83.2742H82.2742V24.488H83.2742ZM83.2742 6.128L82.947 7.07298L83.883 7.39698L84.2102 6.452L84.5373 5.50701L83.6013 5.18301L83.2742 6.128ZM84.2102 6.452L83.3831 5.88991L75.8231 17.0139L76.6502 17.576L77.4772 18.1381L85.0372 7.01409L84.2102 6.452ZM76.6502 17.576L75.8252 17.0108C75.5661 17.389 75.2615 17.548 74.8142 17.548V18.548V19.548C75.9268 19.548 76.8462 19.059 77.4751 18.1412L76.6502 17.576ZM74.8142 18.548V17.548C74.7369 17.548 74.5111 17.5186 74.1631 17.0108L73.3382 17.576L72.5132 18.1412C73.0533 18.9294 73.8114 19.548 74.8142 19.548V18.548ZM73.3382 17.576L74.1652 17.0139L66.6052 5.88991L65.7782 6.452L64.9511 7.01409L72.5111 18.1381L73.3382 17.576ZM65.7782 6.452L65.5085 7.41496L66.4085 7.66696L66.6782 6.704L66.9478 5.74104L66.0478 5.48903L65.7782 6.452ZM66.6782 6.704H65.6782V24.488H66.6782H67.6782V6.704H66.6782ZM66.6782 24.488H65.6782C65.6782 24.6596 65.6563 24.7691 65.635 24.8333C65.6152 24.8926 65.5969 24.9111 65.593 24.9149C65.5892 24.9187 65.5707 24.9371 65.5114 24.9568C65.4473 24.9782 65.3378 25 65.1662 25V26V27C65.8243 27 66.5016 26.8348 67.0073 26.3291C67.5129 25.8234 67.6782 25.1461 67.6782 24.488H66.6782ZM95.5651 24.038L94.8547 24.7419L94.8612 24.7483L95.5651 24.038ZM96.2491 1.97L96.9562 1.26289L96.2491 1.97ZM97.0771 20.96L96.1517 21.3393L96.1571 21.3521L97.0771 20.96ZM98.6431 22.526L98.2509 23.446L98.2638 23.4513L98.6431 22.526ZM109.011 22.526L109.39 23.4514L109.403 23.4459L109.011 22.526ZM110.559 20.96L109.639 20.5679L109.634 20.5808L110.559 20.96ZM112.089 24.038L112.796 24.7451L112.799 24.7419L112.089 24.038ZM101.667 26V25C99.0574 25 97.3283 24.3774 96.2689 23.3277L95.5651 24.038L94.8612 24.7483C96.4418 26.3146 98.7807 27 101.667 27V26ZM95.5651 24.038L96.2754 23.3341C95.2256 22.2747 94.6031 20.5456 94.6031 17.936H93.6031H92.6031C92.6031 20.8224 93.2885 23.1613 94.8547 24.7419L95.5651 24.038ZM93.6031 17.936H94.6031V3.104H93.6031H92.6031V17.936H93.6031ZM93.6031 3.104H94.6031C94.6031 2.93235 94.6249 2.82286 94.6462 2.75873C94.666 2.69943 94.6843 2.68094 94.6882 2.67711L93.9811 1.97L93.274 1.26289C92.7683 1.76857 92.6031 2.44585 92.6031 3.104H93.6031ZM93.9811 1.97L94.6882 2.67711C94.692 2.67327 94.7105 2.65495 94.7698 2.63518C94.8339 2.6138 94.9434 2.592 95.1151 2.592V1.592V0.591999C94.4569 0.591999 93.7796 0.757213 93.274 1.26289L93.9811 1.97ZM95.1151 1.592V2.592C95.2867 2.592 95.3962 2.6138 95.4603 2.63518C95.5196 2.65495 95.5381 2.67327 95.542 2.67711L96.2491 1.97L96.9562 1.26289C96.4505 0.757213 95.7732 0.591999 95.1151 0.591999V1.592ZM96.2491 1.97L95.542 2.67711C95.5458 2.68094 95.5641 2.69943 95.5839 2.75873C95.6053 2.82286 95.6271 2.93235 95.6271 3.104H96.6271H97.6271C97.6271 2.44585 97.4619 1.76857 96.9562 1.26289L96.2491 1.97ZM96.6271 3.104H95.6271V17.936H96.6271H97.6271V3.104H96.6271ZM96.6271 17.936H95.6271C95.6271 19.279 95.7812 20.4351 96.1518 21.3392L97.0771 20.96L98.0024 20.5808C97.7729 20.0209 97.6271 19.161 97.6271 17.936H96.6271ZM97.0771 20.96L96.1571 21.3521C96.5704 22.3216 97.2815 23.0327 98.251 23.4459L98.6431 22.526L99.0352 21.6061C98.5406 21.3953 98.2078 21.0624 97.997 20.5679L97.0771 20.96ZM98.6431 22.526L98.2638 23.4513C99.168 23.8219 100.324 23.976 101.667 23.976V22.976V21.976C100.442 21.976 99.5821 21.8301 99.0223 21.6007L98.6431 22.526ZM101.667 22.976V23.976H105.987V22.976V21.976H101.667V22.976ZM105.987 22.976V23.976C107.33 23.976 108.486 23.8219 109.39 23.4513L109.011 22.526L108.632 21.6007C108.072 21.8301 107.212 21.976 105.987 21.976V22.976ZM109.011 22.526L109.403 23.4459C110.375 23.0315 111.084 22.3162 111.484 21.3392L110.559 20.96L109.634 20.5808C109.434 21.0679 109.111 21.3965 108.619 21.6061L109.011 22.526ZM110.559 20.96L111.479 21.3521C111.866 20.4432 112.027 19.2819 112.027 17.936H111.027H110.027C110.027 19.1581 109.876 20.0128 109.639 20.5679L110.559 20.96ZM111.027 17.936H112.027V3.104H111.027H110.027V17.936H111.027ZM111.027 3.104H112.027C112.027 2.93235 112.049 2.82286 112.07 2.75873C112.09 2.69943 112.108 2.68094 112.112 2.67711L111.405 1.97L110.698 1.26289C110.192 1.76857 110.027 2.44585 110.027 3.104H111.027ZM111.405 1.97L112.112 2.67711C112.116 2.67327 112.134 2.65495 112.194 2.63518C112.258 2.6138 112.367 2.592 112.539 2.592V1.592V0.591999C111.881 0.591999 111.204 0.757213 110.698 1.26289L111.405 1.97ZM112.539 1.592V2.592C112.711 2.592 112.82 2.6138 112.884 2.63518C112.944 2.65495 112.962 2.67327 112.966 2.67711L113.673 1.97L114.38 1.26289C113.874 0.757213 113.197 0.591999 112.539 0.591999V1.592ZM113.673 1.97L112.966 2.67711C112.97 2.68094 112.988 2.69943 113.008 2.75873C113.029 2.82286 113.051 2.93235 113.051 3.104H114.051H115.051C115.051 2.44585 114.886 1.76857 114.38 1.26289L113.673 1.97ZM114.051 3.104H113.051V17.936H114.051H115.051V3.104H114.051ZM114.051 17.936H113.051C113.051 20.5456 112.429 22.2747 111.379 23.3341L112.089 24.038L112.799 24.7419C114.366 23.1613 115.051 20.8224 115.051 17.936H114.051ZM112.089 24.038L111.382 23.3309C110.336 24.3764 108.611 25 105.987 25V26V27C108.883 27 111.226 26.3156 112.796 24.7451L112.089 24.038ZM105.987 26V25H101.667V26V27H105.987V26ZM124.37 2.492L125.16 1.8789L125.151 1.8683L125.143 1.85792L124.37 2.492ZM138.842 21.14V22.14H140.883L139.632 20.5269L138.842 21.14ZM138.086 21.14H137.086V22.14H138.086V21.14ZM138.086 25.1L137.296 25.7131L137.297 25.715L138.086 25.1ZM123.614 6.452V5.452H121.572L122.824 7.06509L123.614 6.452ZM124.37 6.452H125.37V5.452H124.37V6.452ZM122.858 26V25C122.686 25 122.576 24.9782 122.512 24.9568C122.453 24.9371 122.435 24.9187 122.431 24.9149C122.427 24.9111 122.409 24.8926 122.389 24.8333C122.367 24.7691 122.346 24.6596 122.346 24.488H121.346H120.346C120.346 25.1461 120.511 25.8234 121.016 26.3291C121.522 26.8348 122.199 27 122.858 27V26ZM121.346 24.488H122.346V3.104H121.346H120.346V24.488H121.346ZM121.346 3.104H122.346C122.346 2.93235 122.367 2.82286 122.389 2.75873C122.409 2.69943 122.427 2.68094 122.431 2.67711C122.435 2.67327 122.453 2.65495 122.512 2.63518C122.576 2.6138 122.686 2.592 122.858 2.592V1.592V0.591999C122.199 0.591999 121.522 0.757213 121.016 1.26289C120.511 1.76857 120.346 2.44585 120.346 3.104H121.346ZM122.858 1.592V2.592C122.948 2.592 123.197 2.63875 123.596 3.12608L124.37 2.492L125.143 1.85792C124.558 1.14524 123.799 0.591999 122.858 0.591999V1.592ZM124.37 2.492L123.58 3.10509L138.052 21.7531L138.842 21.14L139.632 20.5269L125.16 1.8789L124.37 2.492ZM138.842 21.14V20.14H138.086V21.14V22.14H138.842V21.14ZM138.086 21.14H139.086V3.104H138.086H137.086V21.14H138.086ZM138.086 3.104H139.086C139.086 2.93235 139.107 2.82286 139.129 2.75873C139.149 2.69943 139.167 2.68094 139.171 2.67711C139.174 2.67327 139.193 2.65495 139.252 2.63518C139.316 2.6138 139.426 2.592 139.598 2.592V1.592V0.591999C138.939 0.591999 138.262 0.757213 137.756 1.26289C137.251 1.76857 137.086 2.44585 137.086 3.104H138.086ZM139.598 1.592V2.592C139.769 2.592 139.879 2.6138 139.943 2.63518C140.002 2.65495 140.021 2.67327 140.024 2.67711C140.028 2.68094 140.047 2.69943 140.066 2.75873C140.088 2.82286 140.11 2.93235 140.11 3.104H141.11H142.11C142.11 2.44585 141.944 1.76857 141.439 1.26289C140.933 0.757212 140.256 0.591999 139.598 0.591999V1.592ZM141.11 3.104H140.11V24.488H141.11H142.11V3.104H141.11ZM141.11 24.488H140.11C140.11 24.6596 140.088 24.7691 140.066 24.8333C140.047 24.8926 140.028 24.9111 140.024 24.9149C140.021 24.9187 140.002 24.937 139.943 24.9568C139.879 24.9782 139.769 25 139.598 25V26V27C140.256 27 140.933 26.8348 141.439 26.3291C141.944 25.8234 142.11 25.1461 142.11 24.488H141.11ZM139.598 26V25C139.478 25 139.234 24.9469 138.874 24.485L138.086 25.1L137.297 25.715C137.873 26.4531 138.637 27 139.598 27V26ZM138.086 25.1L138.876 24.4869L124.404 5.8389L123.614 6.452L122.824 7.06509L137.296 25.7131L138.086 25.1ZM123.614 6.452V7.452H124.37V6.452V5.452H123.614V6.452ZM124.37 6.452H123.37V24.488H124.37H125.37V6.452H124.37ZM124.37 24.488H123.37C123.37 24.6596 123.348 24.7691 123.326 24.8333C123.307 24.8926 123.288 24.9111 123.284 24.9149C123.281 24.9187 123.262 24.9371 123.203 24.9568C123.139 24.9782 123.029 25 122.858 25V26V27C123.516 27 124.193 26.8348 124.699 26.3291C125.204 25.8234 125.37 25.1461 125.37 24.488H124.37ZM149.312 26V25C149.152 25 149.053 24.9797 148.998 24.9613C148.971 24.9525 148.956 24.9445 148.949 24.94C148.942 24.9358 148.939 24.9333 148.939 24.9329C148.938 24.9325 148.936 24.9301 148.932 24.923C148.927 24.9156 148.919 24.9003 148.91 24.8738C148.892 24.8186 148.872 24.7197 148.872 24.56H147.872H146.872C146.872 25.1941 147.031 25.8534 147.525 26.3471C148.018 26.8408 148.678 27 149.312 27V26ZM147.872 24.56H148.872V23.66H147.872H146.872V24.56H147.872ZM147.872 23.66H148.872C148.872 23.5086 148.891 23.4174 148.908 23.3692C148.916 23.3461 148.923 23.3337 148.926 23.3285C148.927 23.3258 148.929 23.3244 148.929 23.3238C148.929 23.3233 148.93 23.3231 148.93 23.323C148.93 23.3229 148.93 23.3224 148.932 23.3215C148.933 23.3206 148.935 23.3189 148.939 23.3166C148.947 23.312 148.963 23.3038 148.991 23.2948C149.048 23.2761 149.15 23.256 149.312 23.256V22.256V21.256C148.684 21.256 148.028 21.4089 147.534 21.891C147.034 22.3777 146.872 23.0313 146.872 23.66H147.872ZM149.312 22.256V23.256H150.176V22.256V21.256H149.312V22.256ZM150.176 22.256V23.256C150.471 23.256 150.51 23.3302 150.485 23.3049C150.465 23.2844 150.544 23.3397 150.544 23.66H151.544H152.544C152.544 23.0443 152.394 22.3976 151.918 21.9091C151.437 21.4159 150.792 21.256 150.176 21.256V22.256ZM151.544 23.66H150.544V24.56H151.544H152.544V23.66H151.544ZM151.544 24.56H150.544C150.544 24.8983 150.462 24.9662 150.477 24.9513C150.5 24.9267 150.464 25 150.176 25V26V27C150.799 27 151.447 26.8334 151.927 26.3288C152.397 25.8338 152.544 25.1817 152.544 24.56H151.544ZM150.176 26V25H149.312V26V27H150.176V26Z" fill="black" mask="url(#path-1-outside-1_1065_968)"/>
<defs>
<linearGradient id="paint0_linear_1065_968" x1="76.5" y1="12" x2="76.5" y2="38.5" gradientUnits="userSpaceOnUse">
<stop stop-color="#1B98E0"/>
<stop offset="1" stop-color="#E8F1F2"/>
</linearGradient>
</defs>
</svg>
